# xmcd
#
# Track frame offsets:
#	150
#	14767
#	28040
#	43490
#	59835
#	72503
#	93911
#	109226
#	125629
#	141733
#	153388
#	172498
#	189308
#	203302
#	218042
#
# Disc length: 3267 seconds
#
# Revision: 1
# Processed by: cddbd v1.5.2PL0 Copyright (c) Steve Scherf et al.
# Submitted via: audiograbber 1.83.01
#
DISCID=f10cc10f
DTITLE=Cajun Roosters - okra and a pepper
DYEAR=2011
DGENRE=Cajun
TTITLE0=Horse with no shoes
TTITLE1=Hip et taiaut
TTITLE2=Sugar bee
TTITLE3=Crawfish waltz
TTITLE4=Fruge's reel
TTITLE5=French Rockin Boogie
TTITLE6=un matin
TTITLE7=73 special
TTITLE8=Precious time
TTITLE9=Tout en beau
TTITLE10=Born in this country
TTITLE11=Clef de la prison
TTITLE12=Separation waltz
TTITLE13=Joli fille
TTITLE14=Valse de Belizaire
EXTD=
EXTT0=
EXTT1=
EXTT2=
EXTT3=
EXTT4=
EXTT5=
EXTT6=
EXTT7=
EXTT8=
EXTT9=
EXTT10=
EXTT11=
EXTT12=
EXTT13=
EXTT14=
PLAYORDER=
